<svg version="1" xmlns="http://www.w3.org/2000/svg" width="933.333" height="933.333" viewBox="0 0 700.000000 700.000000"><path d="M435 206.8c-15.9 4.8-28 16.9-32.7 32.6-1.6 5.2-2.5 33.7-1.3 40.1l.6 3 2.1-3.9 2-4 1.6 3c2.5 4.9 12.3 14.2 18 17 2.8 1.5 5.4 2.8 5.6 3 .2.1-.6 1.8-1.7 3.6-1 1.8-4.3 7.8-7.2 13.3-12.1 23-88.4 163.2-90.3 165.9-2.4 3.4-8.9 6.6-13.7 6.6-8.3 0-7.5 1-68.2-85-31.3-44.3-57.3-80.4-57.8-80.3-.5.2-20.6 13.3-44.5 29.3-43.5 28.9-43.6 29-48.9 29-4.1 0-6.2-.6-9.2-2.6-3.6-2.4-3.9-2.5-5.1-.8-3.1 4.2-2.9 13.8.5 18.3 3.8 5.1 6.9 6.6 13.6 6.6h6.3l41.4-27.6c22.8-15.1 42.6-28.3 44-29.2l2.6-1.7 45.4 64.2c73.9 104.8 68.5 97.4 73.6 99.9 5.4 2.6 10.8 2.2 16.1-1.4 3.2-2.1 9.8-13.7 53.4-93.8 39.3-72.4 50-91.4 51.5-91.2 1 .1 4.9.7 8.7 1.3 9 1.6 18.5.2 27.3-3.9 3.6-1.7 6.7-3 6.8-2.9 8.9 12.6 104.4 135.2 106.2 136.4 4.1 2.8 14.2 2.6 18-.2 4.8-3.6 7.3-8.2 7.3-13.6 0-4.2-2.1-10.8-3.5-10.8-.2 0-2.1 1.1-4.1 2.5-4.9 3.4-12.7 3.5-17.4.2-3.4-2.2-100.2-126.8-105.4-135.5-.6-1 .8-2.9 4.2-6.2 10.4-9.9 15.3-21 15.4-34.6.1-10.4-1.7-16.9-6.8-25.5-10.9-18.1-34.2-27.2-54.4-21.1z"/></svg>