<?xml version="1.0" ?><svg enable-background="new 0 0 64 64" height="64px" version="1.1" viewBox="0 0 64 64" width="64px" xml:space="preserve" xmlns="http://www.w3.org/2000/svg" xmlns:xlink="http://www.w3.org/1999/xlink"><g id="Layer_1"><g><circle cx="32" cy="32" fill="#76C2AF" r="32"/></g><g><path d="M29.125,44.5c-0.485,0-0.943-0.235-1.225-0.635L17.617,29.308l-7.785,5.19    c-0.69,0.46-1.621,0.273-2.08-0.416c-0.459-0.689-0.273-1.62,0.416-2.08l9-6c0.675-0.45,1.588-0.281,2.057,0.383l9.733,13.779    l10.724-19.755c0.242-0.445,0.693-0.739,1.199-0.779c0.506-0.038,0.998,0.177,1.308,0.58l13,16.875    c0.505,0.656,0.383,1.598-0.273,2.104c-0.656,0.505-1.597,0.384-2.104-0.273L41.219,23.866l-10.775,19.85    c-0.248,0.455-0.712,0.751-1.23,0.781C29.184,44.499,29.154,44.5,29.125,44.5z" fill="#FFFFFF"/></g><g><circle cx="41" cy="23.125" fill="#C75C5C" r="4.375"/></g><g opacity="0.2"><g><path d="M29.125,46.5c-0.485,0-0.943-0.235-1.225-0.635L17.617,31.308l-7.785,5.19     c-0.69,0.459-1.621,0.272-2.08-0.416c-0.459-0.689-0.273-1.621,0.416-2.08l9-6c0.676-0.453,1.588-0.281,2.057,0.383l9.733,13.779     l10.724-19.754c0.242-0.446,0.693-0.739,1.199-0.779c0.505-0.042,0.998,0.178,1.308,0.58l13,16.875     c0.505,0.656,0.383,1.598-0.273,2.104c-0.656,0.506-1.597,0.384-2.104-0.273L41.219,25.867L30.443,45.716     c-0.248,0.456-0.712,0.751-1.23,0.782C29.184,46.499,29.154,46.5,29.125,46.5z" fill="#231F20"/></g></g><g><path d="M29.125,44.5c-0.485,0-0.943-0.235-1.225-0.635L17.617,29.308l-7.785,5.19    c-0.69,0.46-1.621,0.273-2.08-0.416c-0.459-0.689-0.273-1.62,0.416-2.08l9-6c0.675-0.45,1.588-0.281,2.057,0.383l9.733,13.779    l10.724-19.755c0.242-0.445,0.693-0.739,1.199-0.779c0.506-0.038,0.998,0.177,1.308,0.58l13,16.875    c0.505,0.656,0.383,1.598-0.273,2.104c-0.656,0.505-1.597,0.384-2.104-0.273L41.219,23.866l-10.775,19.85    c-0.248,0.455-0.712,0.751-1.23,0.781C29.184,44.499,29.154,44.5,29.125,44.5z" fill="#FFFFFF"/></g><g opacity="0.2"><circle cx="41" cy="25.125" fill="#231F20" r="4.375"/></g><g><circle cx="41" cy="23.125" fill="#4F5D73" r="4.375"/></g></g><g id="Layer_2"/></svg>